<svg width="35" height="42" viewBox="0 0 35 42" fill="none" xmlns="http://www.w3.org/2000/svg">
<g clip-path="url(#clip0_5_39)">
<path d="M14.78 41.2383C14.8059 36.635 12.5014 32.1034 7.63285 29.4564C5.74757 28.4314 3.53645 28.0968 1.36041 27.8272C10.1609 27.346 13.0189 19.3826 14.0899 13.2468C13.8029 18.7328 17.2984 24.5623 24.15 24.9351C17.4298 28.5332 15.2526 34.879 14.78 41.2383Z" fill="#FFE7A9" stroke="#1D1D1D" stroke-miterlimit="1.5" stroke-linecap="round" stroke-linejoin="round"/>
<path d="M29.0023 15.3493C29.0155 13.0102 27.8444 10.7074 25.3705 9.36236C24.4125 8.8415 23.2889 8.67146 22.1831 8.53449C26.6551 8.28995 28.1074 4.24337 28.6516 1.12547C28.5058 3.91318 30.282 6.87541 33.7637 7.06485C30.3488 8.89323 29.2424 12.1179 29.0023 15.3493Z" fill="#FFE7A9" stroke="#1D1D1D" stroke-miterlimit="1.5" stroke-linecap="round" stroke-linejoin="round"/>
</g>
<defs>
<clipPath id="clip0_5_39">
<rect width="35" height="42" fill="white"/>
</clipPath>
</defs>
</svg>
