<svg width="88" height="76" viewBox="0 0 88 76" fill="none" xmlns="http://www.w3.org/2000/svg">
<g clip-path="url(#clip0_5_27)">
<path d="M36.6356 63.8798C37.5204 51.64 36.1047 27.8386 23.3635 30.552C10.6222 33.2655 10.0913 48.5923 11.4186 55.9166C12.5983 60.1931 19.3523 58.2171 13.9255 44.4141" stroke="#1D1D1D" stroke-linecap="round"/>
<path d="M9.50148 42.9391C5.91309 42.8408 -2.46717 46.5663 2.57049 59.1606C9.05905 75.3823 42.3868 84.6725 52.1197 59.1606" stroke="#1D1D1D" stroke-linecap="round"/>
<path d="M60.8203 51.3451C58.3134 48.3958 55.5115 51.3451 52.8571 48.3958V55.8341C53.329 57.0139 54.4374 55.8341 55.0691 55.3267L60.8203 51.3451Z" fill="#1D1D1D"/>
<path d="M66.2766 47.3632L60.7632 51.3013C57.4539 53.6651 52.8571 51.2995 52.8571 47.2326V39.3999" stroke="#1D1D1D" stroke-linecap="round"/>
<path d="M58.9032 36.0082L68.4886 16.6899" stroke="#1D1D1D" stroke-linecap="round"/>
<path d="M73.5026 16.9849L62.59 39.2525" stroke="#1D1D1D" stroke-linecap="round"/>
<path d="M77.0418 21.4092L67.6039 40.4325" stroke="#1D1D1D" stroke-linecap="round"/>
<path d="M64.8018 14.9202L54.1243 36.6807C53.7456 37.4525 54.4833 38.3909 55.3398 38.4659C56.56 38.5728 57.8009 39.0887 58.3962 40.4431C58.7122 41.1622 59.6246 41.6478 60.3793 41.4304C61.4468 41.123 62.5566 41.2325 63.0607 42.4798C63.3837 43.2792 64.299 43.9343 65.1137 43.6526C66.1171 43.3056 69.1339 43.3627 69.6019 42.4097L79.8436 21.5562" stroke="#1D1D1D" stroke-linecap="round"/>
<path d="M78.369 1.20579C73.4141 0.379976 71.094 2.23807 70.5532 3.27035L68.2337 7.79899C67.8855 8.47874 68.3981 9.2972 69.1604 9.34358C73.0612 9.58091 78.997 11.0153 81.8328 14.9645C82.2835 15.5922 83.3323 15.6114 83.6779 14.9203L86.4533 9.23074C86.565 9.00168 86.5878 8.73929 86.5004 8.49988C85.653 6.17825 83.0593 1.9875 78.369 1.20579Z" fill="#1D1D1D" stroke="#1D1D1D" stroke-linecap="round"/>
<path d="M82.6456 16.8373L81.4759 19.039C81.0325 19.8737 79.496 19.7608 78.9448 18.993C77.2335 16.6094 73.6061 13.9481 67.1109 13.507C66.3812 13.4574 65.9018 12.6902 66.2183 12.0309L67.3089 9.75879" stroke="#1D1D1D" stroke-linecap="round"/>
<path d="M68.1937 11.6761C70.2091 11.3812 75.3902 11.9121 79.9912 16.3951" stroke="#1D1D1D" stroke-linecap="round"/>
</g>
<defs>
<clipPath id="clip0_5_27">
<rect width="88" height="76" fill="white"/>
</clipPath>
</defs>
</svg>
