<svg width="21" height="22" viewBox="0 0 21 22" fill="none" xmlns="http://www.w3.org/2000/svg">
<g clip-path="url(#clip0_151_54)">
<path d="M19.8247 10.5634C17.9463 11.5119 16.2636 13.0056 15.6944 15.2223C15.508 15.9483 15.675 16.5553 15.7421 17.2651C14.3099 15.8184 12.8405 16.4864 11.8407 18.1959C11.5089 18.7629 11.2565 19.3609 11.0828 19.9954C11.0183 20.2307 10.955 20.4664 10.924 20.7093C10.9129 20.8 10.9691 21.0681 10.9334 20.9838C10.1259 19.0815 9.21525 17.07 7.33911 16.0244C6.56786 15.5944 5.85513 15.5525 5.01971 15.8071C4.92283 15.8365 4.39534 15.9694 4.40688 16.044C4.89297 14.5717 4.19441 13.1627 2.89157 12.3979C2.43155 12.1279 1.94586 11.9197 1.45268 11.7205C1.25024 11.6388 0.71009 11.5462 0.858484 11.4776C0.597881 11.5507 1.43366 11.3609 1.52385 11.3281C2.06622 11.1316 2.67834 10.9053 3.15698 10.5784C4.05795 9.96355 5.46935 8.26502 4.03264 6.51369C4.03264 6.51369 4.2846 6.64058 4.33344 6.65791C4.57502 6.74303 4.8132 6.80893 5.06556 6.85408C5.81671 6.98889 6.61742 6.90193 7.27235 6.48695C8.83878 5.49404 9.14181 2.68953 9.35094 1C9.26743 1.10506 9.48405 1.45225 9.52317 1.52868C9.80797 2.0882 10.1114 2.63948 10.4499 3.16811C11.3714 4.60764 13.8451 7.01487 15.621 5.22104C15.5032 5.18867 15.3876 5.89804 15.3746 5.98464C15.2683 6.68654 15.3418 7.37637 15.7432 7.97581C16.6789 9.37316 18.2047 10.5634 19.8247 10.5634Z" fill="#E3E3FF" stroke="#1D1D1D" stroke-miterlimit="1.5" stroke-linecap="round" stroke-linejoin="round"/>
</g>
<defs>
<clipPath id="clip0_151_54">
<rect width="21" height="22" fill="white"/>
</clipPath>
</defs>
</svg>
