<svg width="19" height="20" viewBox="0 0 19 20" fill="none" xmlns="http://www.w3.org/2000/svg">
<g clip-path="url(#clip0_151_67)">
<mask id="mask0_151_67" style="mask-type:luminance" maskUnits="userSpaceOnUse" x="0" y="0" width="19" height="20">
<path d="M9.50614 0.514991C8.64498 0.138754 6.9979 6.96954 6.9979 6.96954C6.9979 6.96954 0.69384 6.47625 0.167108 7.48791C-0.393066 8.56646 5.33409 12.1616 5.33409 12.1616C5.33409 12.1616 3.00142 19.0426 3.72882 19.4439C4.82408 20.0459 9.50614 15.6063 9.50614 15.6063C9.50614 15.6063 14.4641 19.8285 15.2835 19.4439C15.7015 19.2432 13.4775 12.3706 13.4775 12.3706C13.4775 12.3706 18.9288 8.91761 18.5944 8.01464C18.285 7.1702 12.006 7.28725 12.006 7.28725C12.006 7.28725 10.6349 1.01664 9.49778 0.523352L9.50614 0.514991Z" fill="white"/>
</mask>
<g mask="url(#mask0_151_67)">
<path d="M9.50614 0.514991C8.64498 0.138754 6.9979 6.96954 6.9979 6.96954C6.9979 6.96954 0.69384 6.47625 0.167108 7.48791C-0.393066 8.56646 5.33409 12.1616 5.33409 12.1616C5.33409 12.1616 3.00142 19.0426 3.72882 19.4439C4.82408 20.0459 9.50614 15.6063 9.50614 15.6063C9.50614 15.6063 14.4641 19.8285 15.2835 19.4439C15.7015 19.2432 13.4775 12.3706 13.4775 12.3706C13.4775 12.3706 18.9288 8.91761 18.5944 8.01464C18.285 7.1702 12.006 7.28725 12.006 7.28725C12.006 7.28725 10.6349 1.01664 9.49778 0.523352L9.50614 0.514991Z" fill="#E9FFB6" stroke="#1D1D1D" stroke-width="2"/>
</g>
</g>
<defs>
<clipPath id="clip0_151_67">
<rect width="19" height="20" fill="white"/>
</clipPath>
</defs>
</svg>
