<svg width="19" height="17" viewBox="0 0 19 17" fill="none" xmlns="http://www.w3.org/2000/svg">
<g clip-path="url(#clip0_96_550)">
<mask id="mask0_96_550" style="mask-type:luminance" maskUnits="userSpaceOnUse" x="0" y="0" width="18" height="16">
<path d="M13.797 15.6298C9.86738 15.4841 5.92156 15.5468 1.99972 15.6377C1.60854 15.6337 1.21736 15.6298 0.82819 15.5998C0.311318 15.5336 0.175743 15.2611 0.445439 14.8098C0.717141 14.3325 0.990871 13.8291 1.31445 13.356C4.00716 9.237 6.69985 5.1183 9.39457 0.973389C10.0178 -0.00117892 10.405 0.0548762 10.9532 1.06737C12.9889 4.79052 15.27 8.37523 16.5191 12.4835C17.5371 15.866 17.591 15.8438 14.2122 15.6618C14.0565 15.6498 13.9268 15.6398 13.797 15.6298Z" fill="white"/>
</mask>
<g mask="url(#mask0_96_550)">
<path d="M13.797 15.6298C9.86738 15.4841 5.92156 15.5468 1.99972 15.6377C1.60854 15.6337 1.21736 15.6298 0.82819 15.5998C0.311318 15.5336 0.175743 15.2611 0.445439 14.8098C0.717141 14.3325 0.990871 13.8291 1.31445 13.356C4.00716 9.237 6.69985 5.1183 9.39457 0.973389C10.0178 -0.00117892 10.405 0.0548762 10.9532 1.06737C12.9889 4.79052 15.27 8.37523 16.5191 12.4835C17.5371 15.866 17.591 15.8438 14.2122 15.6618C14.0565 15.6498 13.9268 15.6398 13.797 15.6298Z" fill="#FFE3FB" stroke="#1D1D1D" stroke-width="2"/>
</g>
</g>
<defs>
<clipPath id="clip0_96_550">
<rect width="18" height="16" fill="white"/>
</clipPath>
</defs>
</svg>
