<svg width="28" height="28" viewBox="0 0 28 28" fill="none" xmlns="http://www.w3.org/2000/svg">
<g clip-path="url(#clip0_23_20)">
<path d="M8.33876 5.7547C9.11369 5.7547 9.81145 5.82119 10.4476 5.95992C11.0838 6.09291 11.6223 6.31948 12.0796 6.62731C12.5311 6.93515 12.88 7.3456 13.1361 7.85865C13.3823 8.36679 13.5055 9.00298 13.5055 9.75739C13.5055 10.5734 13.3208 11.2506 12.9514 11.794C12.577 12.3375 12.0328 12.7791 11.3047 13.128C12.3004 13.4153 13.0335 13.9177 13.526 14.631C14.0185 15.3493 14.2541 16.2113 14.2541 17.2275C14.2541 18.0484 14.0949 18.7511 13.7821 19.3463C13.4781 19.9279 13.0403 20.429 12.5048 20.8083C11.9712 21.1875 11.3556 21.465 10.6685 21.6448C9.9863 21.8246 9.28279 21.9165 8.55466 21.9165H0.720032V5.7547H8.33876ZM7.87742 12.2816C8.50869 12.2816 9.0316 12.1331 9.44205 11.8301C9.85249 11.5322 10.0479 11.0396 10.0479 10.3632C10.0479 9.98888 9.98137 9.6753 9.84757 9.43477C9.71856 9.20061 9.52885 9.00551 9.29839 8.87C9.05752 8.726 8.79101 8.6301 8.51361 8.58761C8.21236 8.53126 7.90643 8.50377 7.59996 8.50552H4.27533V12.2816H7.87742ZM8.07197 19.1616C8.42085 19.1616 8.75414 19.1304 9.06772 19.059C9.3854 18.9875 9.66779 18.8792 9.90421 18.715C10.1398 18.5557 10.3401 18.3456 10.4838 18.0681C10.6274 17.7964 10.6939 17.4475 10.6939 17.0215C10.6939 16.1907 10.4583 15.5948 9.99123 15.236C9.52414 14.8822 8.90354 14.7074 8.13436 14.7074H4.27615V19.1558H8.07279L8.07197 19.1616ZM19.324 19.1049C19.8059 19.5769 20.4987 19.8134 21.4017 19.8134C22.0485 19.8134 22.6125 19.6492 23.0796 19.3208C23.5467 18.9925 23.8291 18.6436 23.9366 18.2848H26.7687C26.3123 19.696 25.6244 20.6966 24.6803 21.3016C23.7519 21.9075 22.6125 22.2153 21.2941 22.2153C20.3706 22.2153 19.5448 22.0667 18.8003 21.7737C18.0877 21.4956 17.4437 21.0669 16.9122 20.5169C16.3893 19.9529 15.9846 19.29 15.7219 18.5672C15.4453 17.8128 15.3016 16.9763 15.3016 16.0734C15.294 15.2381 15.4401 14.4087 15.7326 13.6263C16.0248 12.8669 16.4254 12.2151 16.959 11.6668C17.4926 11.1184 18.1189 10.6817 18.8577 10.3632C19.5916 10.0455 20.4018 9.88627 21.2999 9.88627C22.2899 9.88627 23.1567 10.0759 23.9013 10.4658C24.6401 10.8508 25.2509 11.3688 25.7278 12.0148C26.2047 12.6609 26.5438 13.4054 26.7539 14.2362C26.9645 15.0879 27.0406 15.9673 26.9797 16.8425H18.5294C18.5294 17.7611 18.8364 18.6387 19.324 19.1049ZM23.0123 12.9589C22.633 12.5386 21.9812 12.3071 21.1964 12.3071C20.6834 12.3071 20.2573 12.3941 19.9191 12.569C19.6064 12.7271 19.3288 12.9469 19.1032 13.215C18.8979 13.4719 18.7543 13.7486 18.6722 14.0408C18.5901 14.3232 18.5384 14.5851 18.5236 14.8108H23.7568C23.6797 13.9899 23.3964 13.3841 23.0123 12.9589ZM17.8661 7.05828H24.4176V8.6541H17.8661V7.05828Z" fill="black"/>
</g>
<defs>
<clipPath id="clip0_23_20">
<rect width="26.4" height="26.4" fill="white" transform="translate(0.720032 0.799988)"/>
</clipPath>
</defs>
</svg>
