<svg width="69" height="58" viewBox="0 0 69 58" fill="none" xmlns="http://www.w3.org/2000/svg">
<path d="M14.7679 48.7676C16.7491 48.7675 18.6061 47.7685 19.7354 46.0953L24.2214 39.4486L28.708 46.0948C29.8377 47.7684 31.6951 48.7675 33.6763 48.7675C34.3785 48.7675 35.0751 48.6396 35.7465 48.3875L41.4373 46.2503L29.9978 13.81C29.4213 11.949 28.0727 10.4993 26.2977 9.8327C25.6606 9.59345 25.0004 9.46594 24.2161 9.45248C23.514 9.45248 22.8175 9.58033 22.1461 9.83251C20.3694 10.4997 19.0203 11.951 18.3732 14.0303L7.00727 46.2506L12.6975 48.3875C13.3691 48.6397 14.0657 48.7676 14.7679 48.7676ZM14.768 54.4085C13.4594 54.4085 12.1286 54.1768 10.8276 53.6882L0 49.622L13.2358 12.101C14.2828 8.71213 16.7862 5.84242 20.2762 4.53177C21.6489 4.01626 23.0548 3.78673 24.4328 3.81367C25.6754 3.83654 26.9343 4.06883 28.1676 4.53198C31.6547 5.84153 34.1568 8.70759 35.2054 12.0928L48.444 49.622L37.6164 53.6882C32.5989 55.5724 27.136 53.6356 24.2219 49.3189C22.0635 52.5169 18.5066 54.4084 14.768 54.4085Z" fill="#252525"/>
<path d="M42.4503 10.1104C39.3041 11.2717 37.6762 14.8124 38.8213 18.0031L48.3052 44.4293C49.4503 47.62 52.9415 49.271 56.0877 48.1097L61.7934 46.0036L50.2327 13.7908C49.0876 10.6001 45.5964 8.94908 42.4503 10.1104ZM40.5753 4.88607C46.5715 2.67271 53.2016 5.80818 55.3841 11.8893L68.8197 49.3264L57.9626 53.334C51.9664 55.5474 45.3363 52.4119 43.1539 46.3308L33.6699 19.9046C31.4875 13.8235 34.5791 7.09943 40.5753 4.88607Z" fill="#252525"/>
<path d="M22.8999 10.1104C19.7537 11.2717 18.1258 14.8124 19.2709 18.0031L28.7548 44.4293C29.8999 47.62 33.3911 49.271 36.5373 48.1097L42.243 46.0036L30.6823 13.7908C29.5372 10.6001 26.046 8.94908 22.8999 10.1104ZM21.0249 4.88607C27.0211 2.67271 33.6512 5.80818 35.8336 11.8893L49.2693 49.3264L38.4122 53.334C32.416 55.5474 25.7859 52.4119 23.6035 46.3308L14.1195 19.9046C11.9371 13.8235 15.0287 7.09943 21.0249 4.88607Z" fill="#252525"/>
</svg>
