<svg width="21" height="22" viewBox="0 0 21 22" fill="none" xmlns="http://www.w3.org/2000/svg">
<mask id="mask0_197_98" style="mask-type:luminance" maskUnits="userSpaceOnUse" x="0" y="0" width="21" height="22">
<path d="M10.9531 22C10.2306 20.1438 9.47371 18.3219 8.85449 16.4656C8.51048 15.4 7.9601 15.0562 6.82487 15.2281C4.89841 15.5031 2.97185 15.675 1.04539 15.8469C0.907794 15.7094 0.804724 15.5375 0.667114 15.4C2.42157 13.6468 4.21029 11.9281 6.03354 10.1062C4.93271 8.35309 3.832 6.56559 2.73117 4.77809C2.79998 4.67497 2.83438 4.57191 2.90318 4.50316C4.24482 5.08753 5.65519 5.60302 6.96243 6.25616C8.02886 6.77177 8.57929 6.46244 8.85449 5.43119C9.30171 3.7468 9.74895 2.02812 10.265 0C10.8842 1.44375 11.5378 2.75 11.985 4.125C12.5011 5.775 13.4298 6.22184 15.0466 5.63747C16.4227 5.15622 17.9021 4.88119 19.7597 4.39994C18.7277 6.2218 17.9365 7.73427 17.0076 9.17802C16.3883 10.1405 16.3539 10.8624 17.0419 11.7906C18.1082 13.2343 19.0715 14.7812 20.31 16.6031C17.7298 16.2593 15.5283 15.9844 13.1546 15.675C12.5697 17.8063 12.0194 19.8687 11.4345 21.9656C11.297 22 11.125 22 10.9531 22Z" fill="white"/>
</mask>
<g mask="url(#mask0_197_98)">
<path d="M10.9531 22C10.2306 20.1438 9.47371 18.3219 8.85449 16.4656C8.51048 15.4 7.9601 15.0562 6.82487 15.2281C4.89841 15.5031 2.97185 15.675 1.04539 15.8469C0.907794 15.7094 0.804724 15.5375 0.667114 15.4C2.42157 13.6468 4.21029 11.9281 6.03354 10.1062C4.93271 8.35309 3.832 6.56559 2.73117 4.77809C2.79998 4.67497 2.83438 4.57191 2.90318 4.50316C4.24482 5.08753 5.65519 5.60302 6.96243 6.25616C8.02886 6.77177 8.57929 6.46244 8.85449 5.43119C9.30171 3.7468 9.74895 2.02812 10.265 0C10.8842 1.44375 11.5378 2.75 11.985 4.125C12.5011 5.775 13.4298 6.22184 15.0466 5.63747C16.4227 5.15622 17.9021 4.88119 19.7597 4.39994C18.7277 6.2218 17.9365 7.73427 17.0076 9.17802C16.3883 10.1405 16.3539 10.8624 17.0419 11.7906C18.1082 13.2343 19.0715 14.7812 20.31 16.6031C17.7298 16.2593 15.5283 15.9844 13.1546 15.675C12.5697 17.8063 12.0194 19.8687 11.4345 21.9656C11.297 22 11.125 22 10.9531 22Z" fill="#E3F2FF" stroke="#1D1D1D" stroke-width="2"/>
</g>
</svg>
