<svg width="19" height="17" viewBox="0 0 19 17" fill="none" xmlns="http://www.w3.org/2000/svg">
<path d="M1.24007 9.02211C1.95654 10.2943 2.81424 11.4561 3.80457 12.5267C5.02519 13.8445 6.42741 14.9348 7.94201 15.8856C8.31878 16.1211 8.70453 16.3469 9.08398 16.5807C9.64316 16.9235 10.1733 16.956 10.7552 16.5784C11.6911 15.9717 12.5427 15.2663 13.3735 14.5263C14.8701 13.1938 16.1863 11.6986 17.2875 10.0291C18.3653 8.39422 19.0502 6.60183 18.8788 4.60066C18.7498 3.08225 18.0114 1.9055 16.6753 1.12625C15.3868 0.375382 14.0721 0.474275 12.7575 1.02401C11.5853 1.51472 10.7066 2.36329 10.0022 3.40343C9.91574 3.52971 9.83556 3.65961 9.74738 3.78321C9.51477 4.11178 9.27807 4.13278 8.99755 3.84731C8.6438 3.48868 8.31069 3.10874 7.94434 2.76611C7.04733 1.93083 5.97265 1.41685 4.7795 1.17361C2.47216 0.698714 0.752264 1.897 0.244386 4.11623C0.14462 4.5558 0.144255 5.02047 0.0975342 5.47328C0.136234 6.77558 0.616849 7.91787 1.24139 9.02703L1.24007 9.02211Z" fill="#FFEDE3" stroke="#1D1D1D" stroke-width="2"/>
</svg>
