<svg width="27" height="25" viewBox="0 0 27 25" fill="none" xmlns="http://www.w3.org/2000/svg">
<path d="M24.2874 0.107294H2.26045C1.97654 0.0949855 1.69278 0.134614 1.42544 0.223935C1.15809 0.313256 0.912413 0.450496 0.702439 0.627794C0.492481 0.805106 0.322353 1.01901 0.201824 1.25724C0.0812939 1.49548 0.0127047 1.75338 0 2.01618V22.4489C0.0166316 22.9989 0.260133 23.5222 0.680494 23.9112C1.10085 24.3003 1.6662 24.5257 2.26045 24.5411H24.2874C24.8651 24.5173 25.4097 24.2848 25.8046 23.8937C26.1994 23.5027 26.4129 22.984 26.3994 22.4489V2.01618C26.4042 1.76039 26.3524 1.50642 26.2473 1.26981C26.1422 1.03321 25.9859 0.818973 25.7881 0.640225C25.5904 0.461492 25.3553 0.322037 25.0972 0.230395C24.8392 0.138753 24.5636 0.0968639 24.2874 0.107294ZM8.24981 20.479H4.4054V9.59069H8.24981V20.479ZM6.41835 7.94136C6.15008 7.95002 5.88277 7.90723 5.63323 7.8157C5.38368 7.72416 5.15727 7.58585 4.96825 7.40946C4.77921 7.23306 4.63163 7.0224 4.53477 6.79069C4.4379 6.55898 4.39387 6.31124 4.4054 6.06302C4.39354 5.81212 4.43846 5.5617 4.53731 5.32782C4.63616 5.09393 4.78674 4.88176 4.97937 4.7049C5.17202 4.52803 5.40247 4.39039 5.65595 4.30081C5.90945 4.21122 6.18038 4.17167 6.45135 4.18468C6.71962 4.17603 6.98693 4.21881 7.23647 4.31034C7.48603 4.40188 7.71243 4.54019 7.90145 4.71658C8.09049 4.89298 8.23808 5.10364 8.33493 5.33535C8.4318 5.56706 8.47584 5.8148 8.46431 6.06302C8.47617 6.31392 8.43124 6.56434 8.33239 6.79822C8.23354 7.03211 8.08297 7.24429 7.89033 7.42114C7.69768 7.59801 7.46723 7.73565 7.21375 7.82523C6.96025 7.91482 6.68933 7.95438 6.41835 7.94136ZM22.0105 20.479H18.1496V14.5232C18.1496 13.103 17.6051 12.1257 16.2356 12.1257C15.8103 12.1291 15.3963 12.2541 15.0508 12.4838C14.7051 12.7135 14.4448 13.0365 14.3052 13.4085C14.1979 13.6873 14.153 13.9834 14.1732 14.2789V20.479H10.3783V9.59069H14.1732V11.1178C14.5106 10.5441 15.0127 10.0679 15.6242 9.74172C16.2356 9.41568 16.9326 9.2524 17.6381 9.26995C20.1295 9.26995 22.0105 10.7971 22.0105 14.0498V20.479Z" fill="black"/>
</svg>
